;Layer: Drill PTH
;EasyEDA v6.4.0, 2020-07-10T11:57:04+05:30
;10c5ef2ce51e4c2f8f143787e658d517,b6e8962e620740079bb188d2402746ea,10
;Gerber Generator version 0.2
M48
INCH,LZ,00.0000
;Holesize 1 = 0.032 INCH
T01C0.032
;Holesize 2 = 0.032 INCH
T02C0.032
;Holesize 3 = 0.036 INCH
T03C0.036
;Holesize 4 = 0.039 INCH
T04C0.039
;Holesize 5 = 0.055 INCH
T05C0.055
;Holesize 6 = 0.118 INCH
T06C0.118
%
G05
G90
T01
X+022600Y+001050
X+027800Y+001050
X+023600Y+010050
X+026800Y+010050
X+022600Y+010050
X+027800Y+010050
X+014901Y+003600G85X+014898Y+003600
X+014901Y+004600G85X+014898Y+004600
X+014901Y+005600G85X+014898Y+005600
X+014901Y+006600G85X+014898Y+006600
X+014901Y+007600G85X+014898Y+007600
X+014901Y+008600G85X+014898Y+008600
X+014901Y+009600G85X+014898Y+009600
X+014901Y+010600G85X+014898Y+010600
X+014901Y+011600G85X+014898Y+011600
X+014901Y+012600G85X+014898Y+012600
X+014901Y+013600G85X+014898Y+013600
X+014901Y+014600G85X+014898Y+014600
X+014901Y+015600G85X+014898Y+015600
X+014901Y+016600G85X+014898Y+016600
X+014901Y+017600G85X+014898Y+017600
X+005901Y+003600G85X+005898Y+003600
X+005901Y+004600G85X+005898Y+004600
X+005901Y+005600G85X+005898Y+005600
X+005901Y+006600G85X+005898Y+006600
X+005901Y+007600G85X+005898Y+007600
X+005901Y+008600G85X+005898Y+008600
X+005901Y+009600G85X+005898Y+009600
X+005901Y+010600G85X+005898Y+010600
X+005901Y+011600G85X+005898Y+011600
X+005901Y+012600G85X+005898Y+012600
X+005901Y+013600G85X+005898Y+013600
X+005901Y+014600G85X+005898Y+014600
X+005901Y+015600G85X+005898Y+015600
X+005901Y+016600G85X+005898Y+016600
X+005901Y+017600G85X+005898Y+017600
T02
X+024000Y+014400
X+025000Y+014400
T03
X+019800Y+003600
X+019800Y+004600
X+019800Y+005600
X+019800Y+006600
X+019800Y+007600
X+019800Y+008600
X+019800Y+009600
X+019800Y+010600
X+019800Y+011600
X+019800Y+012600
X+019800Y+013600
X+019800Y+014600
X+019800Y+015600
X+019800Y+016600
X+019800Y+017600
X+001850Y+003600
X+001850Y+004600
X+001850Y+005600
X+001850Y+006600
X+001850Y+007600
X+001850Y+008600
X+001850Y+009600
X+001850Y+010600
X+001850Y+011600
X+001850Y+012600
X+001850Y+013600
X+001850Y+014600
X+001850Y+015600
X+001850Y+016600
X+001850Y+017600
X+037350Y+004050
X+037350Y+003050
X+037350Y+002050
X+034850Y+007850
X+033850Y+007850
X+032850Y+007850
X+027259Y+019700
X+022140Y+019700
X+031750Y+001950
X+032750Y+001950
T04
X+031889Y+012050
X+030510Y+012050
X+037539Y+011900
X+036160Y+011900
T05
X+030550Y+016600
X+031550Y+016600
X+029550Y+016600
T06
X+036950Y+015330
X+036950Y+017730
X+035060Y+016550
M30
