G04 Layer: TopLayer*
G04 EasyEDA v6.4.0, 2020-07-10T11:57:04+05:30*
G04 10c5ef2ce51e4c2f8f143787e658d517,b6e8962e620740079bb188d2402746ea,10*
G04 Gerber Generator version 0.2*
G04 Scale: 100 percent, Rotated: No, Reflected: No *
G04 Dimensions in inches *
G04 leading zeros omitted , absolute positions ,2 integer and 4 decimal *
%FSLAX24Y24*%
%MOIN*%
G90*
G70D02*

%ADD11C,0.040000*%
%ADD12C,0.060000*%
%ADD13R,0.080000X0.080000*%
%ADD14C,0.074000*%
%ADD15R,0.078740X0.078740*%
%ADD17C,0.076000*%
%ADD18C,0.157480*%
%ADD19C,0.062992*%
%ADD20R,0.060000X0.060000*%
%ADD21C,0.070866*%
%ADD22C,0.078740*%

%LPD*%
G54D11*
G01X14900Y3600D02*
G01X19800Y3600D01*
G01X14900Y4600D02*
G01X19800Y4600D01*
G01X14900Y5600D02*
G01X19800Y5600D01*
G01X14900Y6600D02*
G01X19800Y6600D01*
G01X14900Y7600D02*
G01X19800Y7600D01*
G01X14900Y8600D02*
G01X19800Y8600D01*
G01X14900Y9600D02*
G01X19800Y9600D01*
G01X14900Y10600D02*
G01X19800Y10600D01*
G01X14900Y11600D02*
G01X19800Y11600D01*
G01X14900Y12600D02*
G01X19800Y12600D01*
G01X14900Y13600D02*
G01X19800Y13600D01*
G01X14900Y14600D02*
G01X19800Y14600D01*
G01X14900Y15600D02*
G01X19800Y15600D01*
G01X5900Y3600D02*
G01X1850Y3600D01*
G01X5900Y4600D02*
G01X1850Y4600D01*
G01X5900Y5600D02*
G01X1850Y5600D01*
G01X5900Y6600D02*
G01X1850Y6600D01*
G01X5900Y7600D02*
G01X1850Y7600D01*
G01X5900Y8600D02*
G01X1850Y8600D01*
G01X5900Y9600D02*
G01X1850Y9600D01*
G01X5900Y10600D02*
G01X1850Y10600D01*
G01X5900Y11600D02*
G01X1850Y11600D01*
G01X5900Y12600D02*
G01X1850Y12600D01*
G01X5900Y13600D02*
G01X1850Y13600D01*
G01X5900Y14600D02*
G01X1850Y14600D01*
G01X5900Y15600D02*
G01X1850Y15600D01*
G01X5900Y16600D02*
G01X1850Y16600D01*
G01X5900Y17600D02*
G01X1850Y17600D01*
G01X36950Y15330D02*
G01X29927Y15330D01*
G01X29550Y15707D01*
G01X29550Y16600D02*
G01X29550Y15707D01*
G01X31750Y1950D02*
G01X32850Y3050D01*
G01X37350Y3050D01*
G01X14900Y16600D02*
G01X19800Y16600D01*
G01X30550Y16600D02*
G01X30550Y17080D01*
G01X29540Y18090D01*
G01X23750Y18090D01*
G01X22140Y19700D01*
G01X14900Y17600D02*
G01X19800Y17600D01*
G01X30510Y12050D02*
G01X26235Y12050D01*
G01X24000Y14286D01*
G01X24000Y14400D01*
G01X33850Y7850D02*
G01X33850Y8711D01*
G01X30510Y12050D01*
G54D12*
G01X19800Y3600D03*
G01X19800Y4600D03*
G01X19800Y5600D03*
G01X19800Y6600D03*
G01X19800Y7600D03*
G01X19800Y8600D03*
G01X19800Y9600D03*
G01X19800Y10600D03*
G01X19800Y11600D03*
G01X19800Y12600D03*
G01X19800Y13600D03*
G01X19800Y14600D03*
G01X19800Y15600D03*
G01X19800Y16600D03*
G01X19800Y17600D03*
G01X1850Y3600D03*
G01X1850Y4600D03*
G01X1850Y5600D03*
G01X1850Y6600D03*
G01X1850Y7600D03*
G01X1850Y8600D03*
G01X1850Y9600D03*
G01X1850Y10600D03*
G01X1850Y11600D03*
G01X1850Y12600D03*
G01X1850Y13600D03*
G01X1850Y14600D03*
G01X1850Y15600D03*
G01X1850Y16600D03*
G01X1850Y17600D03*
G54D13*
G01X37350Y4050D03*
G01X37350Y3050D03*
G01X37350Y2050D03*
G54D14*
G01X24000Y14400D03*
G01X25000Y14400D03*
G54D15*
G01X22600Y1050D03*
G01X27800Y1050D03*
G01X23600Y10050D03*
G01X26800Y10050D03*
G01X22600Y10050D03*
G01X27800Y10050D03*
G36*
G01X29156Y17092D02*
G01X29943Y17092D01*
G01X29943Y16107D01*
G01X29156Y16107D01*
G01X29156Y17092D01*
G37*
G54D17*
G01X14900Y3600D03*
G01X14900Y4600D03*
G01X14900Y5600D03*
G01X14900Y6600D03*
G01X14900Y7600D03*
G01X14900Y8600D03*
G01X14900Y9600D03*
G01X14900Y10600D03*
G01X14900Y11600D03*
G01X14900Y12600D03*
G01X14900Y13600D03*
G01X14900Y14600D03*
G01X14900Y15600D03*
G01X14900Y16600D03*
G01X14900Y17600D03*
G01X5900Y3600D03*
G01X5900Y4600D03*
G01X5900Y5600D03*
G01X5900Y6600D03*
G01X5900Y7600D03*
G01X5900Y8600D03*
G01X5900Y9600D03*
G01X5900Y10600D03*
G01X5900Y11600D03*
G01X5900Y12600D03*
G01X5900Y13600D03*
G01X5900Y14600D03*
G01X5900Y15600D03*
G01X5900Y16600D03*
G01X5900Y17600D03*
G54D18*
G01X36950Y15330D03*
G01X36950Y17730D03*
G01X35060Y16550D03*
G54D12*
G01X27259Y19700D03*
G01X22140Y19700D03*
G54D19*
G01X31889Y12050D03*
G01X30510Y12050D03*
G01X37539Y11900D03*
G01X36160Y11900D03*
G54D20*
G01X31750Y1950D03*
G54D12*
G01X32750Y1950D03*
G54D21*
G01X34850Y7712D02*
G01X34850Y7987D01*
G01X33850Y7712D02*
G01X33850Y7987D01*
G01X32850Y7712D02*
G01X32850Y7987D01*
G54D22*
G01X30550Y16698D02*
G01X30550Y16501D01*
G01X31550Y16698D02*
G01X31550Y16501D01*
M00*
M02*
