G04 Layer: TopSilkLayer*
G04 EasyEDA v6.4.0, 2020-07-10T11:57:04+05:30*
G04 10c5ef2ce51e4c2f8f143787e658d517,b6e8962e620740079bb188d2402746ea,10*
G04 Gerber Generator version 0.2*
G04 Scale: 100 percent, Rotated: No, Reflected: No *
G04 Dimensions in inches *
G04 leading zeros omitted , absolute positions ,2 integer and 4 decimal *
%FSLAX24Y24*%
%MOIN*%
G90*
G70D02*

%ADD10C,0.010000*%
%ADD23C,0.008000*%
%ADD24C,0.015748*%
%ADD25C,0.006000*%
%ADD26C,0.002560*%

%LPD*%
G54D10*
G01X20800Y2600D02*
G01X18800Y2600D01*
G01X18800Y18600D01*
G01X20800Y18600D01*
G01X20800Y2600D01*
G01X2850Y2600D02*
G01X850Y2600D01*
G01X850Y18600D01*
G01X2850Y18600D01*
G01X2850Y2600D01*
G01X36850Y4550D02*
G01X37850Y4550D01*
G01X37850Y1550D01*
G01X36850Y1550D01*
G01X36850Y4550D01*
G01X25500Y13650D02*
G01X25500Y15150D01*
G01X21800Y10750D02*
G01X21800Y450D01*
G01X28500Y450D01*
G01X28500Y10750D01*
G01X21800Y10750D01*
G01X31850Y6850D02*
G01X31850Y8850D01*
G01X35850Y8850D01*
G01X35850Y6850D01*
G01X31850Y6850D01*
G01X32636Y17505D02*
G01X28463Y17505D01*
G01X28463Y17702D02*
G01X32636Y17702D01*
G01X32636Y15813D01*
G01X28463Y15813D01*
G01X28463Y17700D01*
G01X28463Y17702D01*
G54D23*
G01X5400Y20100D02*
G01X8900Y20100D01*
G01X11900Y20100D01*
G01X15400Y20100D01*
G01X15400Y1100D01*
G01X13400Y1100D01*
G01X7400Y1100D01*
G01X5400Y1100D01*
G01X5400Y20100D01*
G01X13400Y1100D02*
G01X13400Y10100D01*
G01X7400Y10100D01*
G01X7400Y1100D01*
G01X11900Y20100D02*
G01X11900Y18600D01*
G01X8900Y18600D01*
G01X8900Y20100D01*
G01X12400Y3100D02*
G01X12400Y1600D01*
G01X11900Y1600D01*
G01X11900Y2600D01*
G01X11400Y2600D01*
G01X11400Y1600D01*
G01X10900Y1600D01*
G01X10900Y2600D01*
G01X10400Y2600D01*
G01X10400Y1600D01*
G01X9900Y1600D01*
G01X9900Y2600D01*
G01X9400Y2600D01*
G01X9400Y1600D01*
G01X8400Y1600D01*
G01X13400Y18600D02*
G01X12400Y18600D01*
G01X12400Y19600D01*
G01X13400Y19600D01*
G01X13400Y18600D01*
G01X8400Y18600D02*
G01X8400Y19600D01*
G01X7400Y19600D01*
G01X7400Y18600D01*
G01X8400Y18600D01*
G54D10*
G01X38010Y15009D02*
G01X38639Y15009D01*
G01X38639Y20640D01*
G01X35260Y20640D01*
G01X35260Y17509D01*
G01X35260Y15640D02*
G01X35260Y15009D01*
G01X35889Y15009D01*
G01X22928Y20349D02*
G01X26471Y20349D01*
G01X26471Y19050D01*
G01X22928Y19050D01*
G01X22928Y20349D01*
G01X26499Y19700D02*
G01X26799Y19700D01*
G01X22899Y19700D02*
G01X22599Y19700D01*
G01X30091Y12340D02*
G01X30091Y12869D01*
G01X30341Y12609D02*
G01X29851Y12609D01*
G01X35741Y12190D02*
G01X35741Y12719D01*
G01X35991Y12459D02*
G01X35501Y12459D01*
G01X31300Y2400D02*
G01X33200Y2400D01*
G01X33200Y1500D01*
G01X31300Y1500D01*
G01X31300Y2400D01*
G54D25*
G01X35850Y4305D02*
G01X35850Y3732D01*
G01X36030Y4305D02*
G01X36030Y3732D01*
G01X36030Y4305D02*
G01X36411Y3732D01*
G01X36411Y4305D02*
G01X36411Y3732D01*
G01X35509Y3119D02*
G01X35481Y3173D01*
G01X35427Y3228D01*
G01X35372Y3255D01*
G01X35264Y3255D01*
G01X35209Y3228D01*
G01X35155Y3173D01*
G01X35127Y3119D01*
G01X35100Y3036D01*
G01X35100Y2901D01*
G01X35127Y2819D01*
G01X35155Y2765D01*
G01X35209Y2709D01*
G01X35264Y2682D01*
G01X35372Y2682D01*
G01X35427Y2709D01*
G01X35481Y2765D01*
G01X35509Y2819D01*
G01X35509Y2901D01*
G01X35372Y2901D02*
G01X35509Y2901D01*
G01X35689Y3255D02*
G01X35689Y2682D01*
G01X35689Y3255D02*
G01X36071Y2682D01*
G01X36071Y3255D02*
G01X36071Y2682D01*
G01X36251Y3255D02*
G01X36251Y2682D01*
G01X36251Y3255D02*
G01X36442Y3255D01*
G01X36523Y3228D01*
G01X36577Y3173D01*
G01X36605Y3119D01*
G01X36632Y3036D01*
G01X36632Y2901D01*
G01X36605Y2819D01*
G01X36577Y2765D01*
G01X36523Y2709D01*
G01X36442Y2682D01*
G01X36251Y2682D01*
G01X35214Y2205D02*
G01X35159Y2178D01*
G01X35105Y2123D01*
G01X35077Y2069D01*
G01X35050Y1986D01*
G01X35050Y1851D01*
G01X35077Y1769D01*
G01X35105Y1715D01*
G01X35159Y1659D01*
G01X35214Y1632D01*
G01X35322Y1632D01*
G01X35377Y1659D01*
G01X35431Y1715D01*
G01X35459Y1769D01*
G01X35485Y1851D01*
G01X35485Y1986D01*
G01X35459Y2069D01*
G01X35431Y2123D01*
G01X35377Y2178D01*
G01X35322Y2205D01*
G01X35214Y2205D01*
G01X35665Y2205D02*
G01X35665Y1796D01*
G01X35693Y1715D01*
G01X35747Y1659D01*
G01X35830Y1632D01*
G01X35885Y1632D01*
G01X35965Y1659D01*
G01X36021Y1715D01*
G01X36047Y1796D01*
G01X36047Y2205D01*
G01X36418Y2205D02*
G01X36418Y1632D01*
G01X36227Y2205D02*
G01X36610Y2205D01*
G01X17902Y11092D02*
G01X17943Y11113D01*
G01X17984Y11155D01*
G01X18003Y11194D01*
G01X18003Y11276D01*
G01X17984Y11317D01*
G01X17943Y11359D01*
G01X17902Y11380D01*
G01X17839Y11400D01*
G01X17738Y11400D01*
G01X17677Y11380D01*
G01X17635Y11359D01*
G01X17594Y11317D01*
G01X17575Y11276D01*
G01X17575Y11194D01*
G01X17594Y11155D01*
G01X17635Y11113D01*
G01X17677Y11092D01*
G01X18003Y10957D02*
G01X17575Y10957D01*
G01X18003Y10957D02*
G01X17575Y10671D01*
G01X18003Y10671D02*
G01X17575Y10671D01*
G01X17902Y10515D02*
G01X17922Y10515D01*
G01X17963Y10496D01*
G01X17984Y10475D01*
G01X18003Y10434D01*
G01X18003Y10353D01*
G01X17984Y10311D01*
G01X17963Y10290D01*
G01X17922Y10271D01*
G01X17881Y10271D01*
G01X17839Y10290D01*
G01X17778Y10332D01*
G01X17575Y10536D01*
G01X17575Y10250D01*
G01X3701Y10792D02*
G01X3742Y10813D01*
G01X3784Y10855D01*
G01X3803Y10894D01*
G01X3803Y10976D01*
G01X3784Y11017D01*
G01X3742Y11059D01*
G01X3701Y11080D01*
G01X3640Y11100D01*
G01X3538Y11100D01*
G01X3476Y11080D01*
G01X3436Y11059D01*
G01X3394Y11017D01*
G01X3375Y10976D01*
G01X3375Y10894D01*
G01X3394Y10855D01*
G01X3436Y10813D01*
G01X3476Y10792D01*
G01X3803Y10657D02*
G01X3375Y10657D01*
G01X3803Y10657D02*
G01X3375Y10371D01*
G01X3803Y10371D02*
G01X3375Y10371D01*
G01X3721Y10236D02*
G01X3742Y10196D01*
G01X3803Y10134D01*
G01X3375Y10134D01*
G01X38350Y847D02*
G01X38779Y847D01*
G01X38350Y847D02*
G01X38350Y1031D01*
G01X38369Y1092D01*
G01X38390Y1113D01*
G01X38431Y1133D01*
G01X38472Y1133D01*
G01X38514Y1113D01*
G01X38534Y1092D01*
G01X38554Y1031D01*
G01X38554Y847D02*
G01X38554Y1031D01*
G01X38575Y1092D01*
G01X38594Y1113D01*
G01X38635Y1133D01*
G01X38697Y1133D01*
G01X38739Y1113D01*
G01X38759Y1092D01*
G01X38779Y1031D01*
G01X38779Y847D01*
G01X38350Y1391D02*
G01X38369Y1350D01*
G01X38410Y1309D01*
G01X38452Y1289D01*
G01X38514Y1268D01*
G01X38615Y1268D01*
G01X38677Y1289D01*
G01X38718Y1309D01*
G01X38759Y1350D01*
G01X38779Y1391D01*
G01X38779Y1473D01*
G01X38759Y1514D01*
G01X38718Y1555D01*
G01X38677Y1575D01*
G01X38615Y1596D01*
G01X38514Y1596D01*
G01X38452Y1575D01*
G01X38410Y1555D01*
G01X38369Y1514D01*
G01X38350Y1473D01*
G01X38350Y1391D01*
G01X38350Y1853D02*
G01X38369Y1812D01*
G01X38410Y1772D01*
G01X38452Y1751D01*
G01X38514Y1731D01*
G01X38615Y1731D01*
G01X38677Y1751D01*
G01X38718Y1772D01*
G01X38759Y1812D01*
G01X38779Y1853D01*
G01X38779Y1935D01*
G01X38759Y1976D01*
G01X38718Y2017D01*
G01X38677Y2037D01*
G01X38615Y2058D01*
G01X38514Y2058D01*
G01X38452Y2037D01*
G01X38410Y2017D01*
G01X38369Y1976D01*
G01X38350Y1935D01*
G01X38350Y1853D01*
G01X38410Y2479D02*
G01X38369Y2438D01*
G01X38350Y2377D01*
G01X38350Y2295D01*
G01X38369Y2234D01*
G01X38410Y2193D01*
G01X38452Y2193D01*
G01X38493Y2213D01*
G01X38514Y2234D01*
G01X38534Y2275D01*
G01X38575Y2397D01*
G01X38594Y2438D01*
G01X38615Y2459D01*
G01X38656Y2479D01*
G01X38718Y2479D01*
G01X38759Y2438D01*
G01X38779Y2377D01*
G01X38779Y2295D01*
G01X38759Y2234D01*
G01X38718Y2193D01*
G01X38350Y2757D02*
G01X38779Y2757D01*
G01X38350Y2614D02*
G01X38350Y2901D01*
G01X38922Y3036D02*
G01X38922Y3404D01*
G01X38350Y3539D02*
G01X38779Y3539D01*
G01X38350Y3539D02*
G01X38779Y3702D01*
G01X38350Y3866D02*
G01X38779Y3702D01*
G01X38350Y3866D02*
G01X38779Y3866D01*
G01X38350Y4124D02*
G01X38369Y4083D01*
G01X38410Y4042D01*
G01X38452Y4022D01*
G01X38514Y4001D01*
G01X38615Y4001D01*
G01X38677Y4022D01*
G01X38718Y4042D01*
G01X38759Y4083D01*
G01X38779Y4124D01*
G01X38779Y4206D01*
G01X38759Y4247D01*
G01X38718Y4287D01*
G01X38677Y4308D01*
G01X38615Y4328D01*
G01X38514Y4328D01*
G01X38452Y4308D01*
G01X38410Y4287D01*
G01X38369Y4247D01*
G01X38350Y4206D01*
G01X38350Y4124D01*
G01X38350Y4463D02*
G01X38779Y4463D01*
G01X38350Y4463D02*
G01X38350Y4607D01*
G01X38369Y4668D01*
G01X38410Y4709D01*
G01X38452Y4729D01*
G01X38514Y4750D01*
G01X38615Y4750D01*
G01X38677Y4729D01*
G01X38718Y4709D01*
G01X38759Y4668D01*
G01X38779Y4607D01*
G01X38779Y4463D01*
G01X38350Y4885D02*
G01X38656Y4885D01*
G01X38718Y4905D01*
G01X38759Y4946D01*
G01X38779Y5007D01*
G01X38779Y5048D01*
G01X38759Y5110D01*
G01X38718Y5151D01*
G01X38656Y5171D01*
G01X38350Y5171D01*
G01X38350Y5306D02*
G01X38779Y5306D01*
G01X38779Y5306D02*
G01X38779Y5552D01*
G01X38350Y5687D02*
G01X38779Y5687D01*
G01X38350Y5687D02*
G01X38350Y5952D01*
G01X38554Y5687D02*
G01X38554Y5850D01*
G01X38779Y5687D02*
G01X38779Y5952D01*
G01X23850Y16353D02*
G01X23850Y15925D01*
G01X23850Y15925D02*
G01X24094Y15925D01*
G01X24230Y16353D02*
G01X24230Y15925D01*
G01X24230Y16353D02*
G01X24496Y16353D01*
G01X24230Y16150D02*
G01X24393Y16150D01*
G01X24230Y15925D02*
G01X24496Y15925D01*
G01X24631Y16353D02*
G01X24631Y15925D01*
G01X24631Y16353D02*
G01X24775Y16353D01*
G01X24835Y16334D01*
G01X24877Y16292D01*
G01X24897Y16251D01*
G01X24918Y16190D01*
G01X24918Y16088D01*
G01X24897Y16026D01*
G01X24877Y15986D01*
G01X24835Y15944D01*
G01X24775Y15925D01*
G01X24631Y15925D01*
G01X23993Y11414D02*
G01X23993Y10985D01*
G01X23850Y11414D02*
G01X24135Y11414D01*
G01X24271Y11414D02*
G01X24271Y10985D01*
G01X24271Y11414D02*
G01X24455Y11414D01*
G01X24517Y11394D01*
G01X24536Y11373D01*
G01X24557Y11332D01*
G01X24557Y11271D01*
G01X24536Y11230D01*
G01X24517Y11210D01*
G01X24455Y11189D01*
G01X24271Y11189D01*
G01X24897Y11414D02*
G01X24693Y11128D01*
G01X25000Y11128D01*
G01X24897Y11414D02*
G01X24897Y10985D01*
G01X25256Y11414D02*
G01X25196Y11394D01*
G01X25155Y11332D01*
G01X25135Y11230D01*
G01X25135Y11169D01*
G01X25155Y11066D01*
G01X25196Y11005D01*
G01X25256Y10985D01*
G01X25297Y10985D01*
G01X25360Y11005D01*
G01X25400Y11066D01*
G01X25421Y11169D01*
G01X25421Y11230D01*
G01X25400Y11332D01*
G01X25360Y11394D01*
G01X25297Y11414D01*
G01X25256Y11414D01*
G01X25801Y11414D02*
G01X25597Y11414D01*
G01X25576Y11230D01*
G01X25597Y11250D01*
G01X25657Y11271D01*
G01X25719Y11271D01*
G01X25781Y11250D01*
G01X25822Y11210D01*
G01X25842Y11148D01*
G01X25842Y11107D01*
G01X25822Y11046D01*
G01X25781Y11005D01*
G01X25719Y10985D01*
G01X25657Y10985D01*
G01X25597Y11005D01*
G01X25576Y11025D01*
G01X25556Y11066D01*
G01X26222Y11353D02*
G01X26202Y11394D01*
G01X26140Y11414D01*
G01X26100Y11414D01*
G01X26039Y11394D01*
G01X25997Y11332D01*
G01X25977Y11230D01*
G01X25977Y11128D01*
G01X25997Y11046D01*
G01X26039Y11005D01*
G01X26100Y10985D01*
G01X26119Y10985D01*
G01X26181Y11005D01*
G01X26222Y11046D01*
G01X26243Y11107D01*
G01X26243Y11128D01*
G01X26222Y11189D01*
G01X26181Y11230D01*
G01X26119Y11250D01*
G01X26100Y11250D01*
G01X26039Y11230D01*
G01X25997Y11189D01*
G01X25977Y11128D01*
G54D23*
G01X22380Y1992D02*
G01X22864Y1992D01*
G01X22622Y1750D02*
G01X22622Y2232D01*
G01X22300Y2409D02*
G01X22864Y2409D01*
G01X22300Y2588D02*
G01X22864Y2588D01*
G01X22300Y2588D02*
G01X22864Y2963D01*
G01X22300Y2963D02*
G01X22864Y2963D01*
G01X27798Y1648D02*
G01X27798Y2132D01*
G01X27477Y2309D02*
G01X28040Y2309D01*
G01X27477Y2486D02*
G01X28040Y2486D01*
G01X27477Y2486D02*
G01X28040Y2861D01*
G01X27477Y2861D02*
G01X28040Y2861D01*
G01X22400Y7311D02*
G01X22427Y7257D01*
G01X22480Y7203D01*
G01X22534Y7176D01*
G01X22614Y7150D01*
G01X22748Y7150D01*
G01X22828Y7176D01*
G01X22882Y7203D01*
G01X22936Y7257D01*
G01X22964Y7311D01*
G01X22964Y7417D01*
G01X22936Y7471D01*
G01X22882Y7526D01*
G01X22828Y7553D01*
G01X22748Y7578D01*
G01X22614Y7578D01*
G01X22534Y7553D01*
G01X22480Y7526D01*
G01X22427Y7471D01*
G01X22400Y7417D01*
G01X22400Y7311D01*
G01X22400Y7757D02*
G01X22802Y7757D01*
G01X22882Y7782D01*
G01X22936Y7836D01*
G01X22964Y7917D01*
G01X22964Y7971D01*
G01X22936Y8051D01*
G01X22882Y8105D01*
G01X22802Y8132D01*
G01X22400Y8132D01*
G01X22400Y8498D02*
G01X22964Y8498D01*
G01X22400Y8309D02*
G01X22400Y8684D01*
G01X22480Y9103D02*
G01X22964Y9103D01*
G01X22722Y8863D02*
G01X22722Y9346D01*
G01X23400Y8350D02*
G01X23964Y8350D01*
G01X23400Y8350D02*
G01X23400Y8592D01*
G01X23427Y8671D01*
G01X23453Y8698D01*
G01X23506Y8726D01*
G01X23560Y8726D01*
G01X23614Y8698D01*
G01X23640Y8671D01*
G01X23668Y8592D01*
G01X23668Y8350D02*
G01X23668Y8592D01*
G01X23694Y8671D01*
G01X23722Y8698D01*
G01X23776Y8726D01*
G01X23856Y8726D01*
G01X23910Y8698D01*
G01X23936Y8671D01*
G01X23964Y8592D01*
G01X23964Y8350D01*
G01X23480Y9144D02*
G01X23964Y9144D01*
G01X23722Y8903D02*
G01X23722Y9386D01*
G01X26427Y8200D02*
G01X26992Y8200D01*
G01X26427Y8200D02*
G01X26427Y8442D01*
G01X26455Y8521D01*
G01X26481Y8548D01*
G01X26535Y8576D01*
G01X26589Y8576D01*
G01X26643Y8548D01*
G01X26668Y8521D01*
G01X26696Y8442D01*
G01X26696Y8200D02*
G01X26696Y8442D01*
G01X26722Y8521D01*
G01X26750Y8548D01*
G01X26803Y8576D01*
G01X26884Y8576D01*
G01X26938Y8548D01*
G01X26964Y8521D01*
G01X26992Y8442D01*
G01X26992Y8200D01*
G01X26750Y8753D02*
G01X26750Y9236D01*
G01X27500Y7211D02*
G01X27527Y7157D01*
G01X27580Y7103D01*
G01X27634Y7076D01*
G01X27714Y7050D01*
G01X27848Y7050D01*
G01X27928Y7076D01*
G01X27982Y7103D01*
G01X28036Y7157D01*
G01X28064Y7211D01*
G01X28064Y7317D01*
G01X28036Y7371D01*
G01X27982Y7426D01*
G01X27928Y7453D01*
G01X27848Y7478D01*
G01X27714Y7478D01*
G01X27634Y7453D01*
G01X27580Y7426D01*
G01X27527Y7371D01*
G01X27500Y7317D01*
G01X27500Y7211D01*
G01X27500Y7657D02*
G01X27902Y7657D01*
G01X27982Y7682D01*
G01X28036Y7736D01*
G01X28064Y7817D01*
G01X28064Y7871D01*
G01X28036Y7951D01*
G01X27982Y8005D01*
G01X27902Y8032D01*
G01X27500Y8032D01*
G01X27500Y8398D02*
G01X28064Y8398D01*
G01X27500Y8209D02*
G01X27500Y8584D01*
G01X27822Y8763D02*
G01X27822Y9246D01*
G54D25*
G01X33035Y9403D02*
G01X32994Y9444D01*
G01X32934Y9464D01*
G01X32852Y9464D01*
G01X32790Y9444D01*
G01X32750Y9403D01*
G01X32750Y9362D01*
G01X32769Y9321D01*
G01X32790Y9300D01*
G01X32831Y9280D01*
G01X32955Y9239D01*
G01X32994Y9219D01*
G01X33015Y9198D01*
G01X33035Y9157D01*
G01X33035Y9096D01*
G01X32994Y9055D01*
G01X32934Y9035D01*
G01X32852Y9035D01*
G01X32790Y9055D01*
G01X32750Y9096D01*
G01X33171Y9464D02*
G01X33273Y9035D01*
G01X33376Y9464D02*
G01X33273Y9035D01*
G01X33376Y9464D02*
G01X33477Y9035D01*
G01X33580Y9464D02*
G01X33477Y9035D01*
G01X33714Y9464D02*
G01X33714Y9035D01*
G01X33993Y9464D02*
G01X33993Y9035D01*
G01X33850Y9464D02*
G01X34136Y9464D01*
G01X34579Y9362D02*
G01X34557Y9403D01*
G01X34517Y9444D01*
G01X34476Y9464D01*
G01X34394Y9464D01*
G01X34354Y9444D01*
G01X34313Y9403D01*
G01X34292Y9362D01*
G01X34272Y9300D01*
G01X34272Y9198D01*
G01X34292Y9137D01*
G01X34313Y9096D01*
G01X34354Y9055D01*
G01X34394Y9035D01*
G01X34476Y9035D01*
G01X34517Y9055D01*
G01X34557Y9096D01*
G01X34579Y9137D01*
G01X34714Y9464D02*
G01X34714Y9035D01*
G01X35000Y9464D02*
G01X35000Y9035D01*
G01X34714Y9260D02*
G01X35000Y9260D01*
G01X29500Y18453D02*
G01X29500Y18025D01*
G01X29500Y18025D02*
G01X29744Y18025D01*
G01X29880Y18453D02*
G01X29880Y18025D01*
G01X29880Y18453D02*
G01X30043Y18025D01*
G01X30207Y18453D02*
G01X30043Y18025D01*
G01X30207Y18453D02*
G01X30207Y18025D01*
G01X30628Y18453D02*
G01X30425Y18025D01*
G01X30343Y18453D02*
G01X30628Y18453D01*
G01X30865Y18453D02*
G01X30805Y18434D01*
G01X30785Y18392D01*
G01X30785Y18352D01*
G01X30805Y18311D01*
G01X30846Y18290D01*
G01X30927Y18269D01*
G01X30989Y18250D01*
G01X31030Y18209D01*
G01X31050Y18167D01*
G01X31050Y18105D01*
G01X31030Y18065D01*
G01X31010Y18044D01*
G01X30947Y18025D01*
G01X30865Y18025D01*
G01X30805Y18044D01*
G01X30785Y18065D01*
G01X30764Y18105D01*
G01X30764Y18167D01*
G01X30785Y18209D01*
G01X30825Y18250D01*
G01X30886Y18269D01*
G01X30968Y18290D01*
G01X31010Y18311D01*
G01X31030Y18352D01*
G01X31030Y18392D01*
G01X31010Y18434D01*
G01X30947Y18453D01*
G01X30865Y18453D01*
G01X31307Y18453D02*
G01X31247Y18434D01*
G01X31206Y18371D01*
G01X31185Y18269D01*
G01X31185Y18209D01*
G01X31206Y18105D01*
G01X31247Y18044D01*
G01X31307Y18025D01*
G01X31348Y18025D01*
G01X31410Y18044D01*
G01X31451Y18105D01*
G01X31472Y18209D01*
G01X31472Y18269D01*
G01X31451Y18371D01*
G01X31410Y18434D01*
G01X31348Y18453D01*
G01X31307Y18453D01*
G01X31852Y18453D02*
G01X31647Y18453D01*
G01X31627Y18269D01*
G01X31647Y18290D01*
G01X31709Y18311D01*
G01X31769Y18311D01*
G01X31831Y18290D01*
G01X31872Y18250D01*
G01X31893Y18188D01*
G01X31893Y18146D01*
G01X31872Y18086D01*
G01X31831Y18044D01*
G01X31769Y18025D01*
G01X31709Y18025D01*
G01X31647Y18044D01*
G01X31627Y18065D01*
G01X31606Y18105D01*
G01X8550Y703D02*
G01X8550Y275D01*
G01X8550Y703D02*
G01X8835Y275D01*
G01X8835Y703D02*
G01X8835Y275D01*
G01X9093Y703D02*
G01X9052Y684D01*
G01X9011Y642D01*
G01X8992Y601D01*
G01X8971Y540D01*
G01X8971Y438D01*
G01X8992Y376D01*
G01X9011Y336D01*
G01X9052Y294D01*
G01X9093Y275D01*
G01X9176Y275D01*
G01X9217Y294D01*
G01X9257Y336D01*
G01X9277Y376D01*
G01X9298Y438D01*
G01X9298Y540D01*
G01X9277Y601D01*
G01X9257Y642D01*
G01X9217Y684D01*
G01X9176Y703D01*
G01X9093Y703D01*
G01X9434Y703D02*
G01X9434Y275D01*
G01X9434Y703D02*
G01X9577Y703D01*
G01X9638Y684D01*
G01X9678Y642D01*
G01X9700Y601D01*
G01X9719Y540D01*
G01X9719Y438D01*
G01X9700Y376D01*
G01X9678Y336D01*
G01X9638Y294D01*
G01X9577Y275D01*
G01X9434Y275D01*
G01X9855Y703D02*
G01X9855Y275D01*
G01X9855Y703D02*
G01X10121Y703D01*
G01X9855Y500D02*
G01X10018Y500D01*
G01X9855Y275D02*
G01X10121Y275D01*
G01X10256Y703D02*
G01X10256Y275D01*
G01X10256Y703D02*
G01X10419Y275D01*
G01X10582Y703D02*
G01X10419Y275D01*
G01X10582Y703D02*
G01X10582Y275D01*
G01X11025Y601D02*
G01X11005Y642D01*
G01X10964Y684D01*
G01X10922Y703D01*
G01X10840Y703D01*
G01X10800Y684D01*
G01X10759Y642D01*
G01X10739Y601D01*
G01X10718Y540D01*
G01X10718Y438D01*
G01X10739Y376D01*
G01X10759Y336D01*
G01X10800Y294D01*
G01X10840Y275D01*
G01X10922Y275D01*
G01X10964Y294D01*
G01X11005Y336D01*
G01X11025Y376D01*
G01X11160Y703D02*
G01X11160Y396D01*
G01X11180Y336D01*
G01X11221Y294D01*
G01X11282Y275D01*
G01X11323Y275D01*
G01X11385Y294D01*
G01X11426Y336D01*
G01X11446Y396D01*
G01X11446Y703D01*
G54D26*
G01X14284Y3425D02*
G01X14400Y3730D01*
G01X14284Y3425D02*
G01X14167Y3730D01*
G01X14356Y3628D02*
G01X14210Y3628D01*
G01X14071Y3425D02*
G01X14071Y3730D01*
G01X14071Y3425D02*
G01X13968Y3425D01*
G01X13926Y3440D01*
G01X13897Y3469D01*
G01X13881Y3498D01*
G01X13868Y3542D01*
G01X13868Y3615D01*
G01X13881Y3657D01*
G01X13897Y3686D01*
G01X13926Y3715D01*
G01X13968Y3730D01*
G01X14071Y3730D01*
G01X13684Y3425D02*
G01X13727Y3440D01*
G01X13756Y3484D01*
G01X13772Y3555D01*
G01X13772Y3600D01*
G01X13756Y3673D01*
G01X13727Y3715D01*
G01X13684Y3730D01*
G01X13655Y3730D01*
G01X13611Y3715D01*
G01X13582Y3673D01*
G01X13568Y3600D01*
G01X13568Y3555D01*
G01X13582Y3484D01*
G01X13611Y3440D01*
G01X13655Y3425D01*
G01X13684Y3425D01*
G01X14181Y4498D02*
G01X14196Y4469D01*
G01X14225Y4440D01*
G01X14255Y4425D01*
G01X14313Y4425D01*
G01X14342Y4440D01*
G01X14371Y4469D01*
G01X14385Y4498D01*
G01X14400Y4542D01*
G01X14400Y4615D01*
G01X14385Y4657D01*
G01X14371Y4686D01*
G01X14342Y4715D01*
G01X14313Y4730D01*
G01X14255Y4730D01*
G01X14225Y4715D01*
G01X14196Y4686D01*
G01X14181Y4657D01*
G01X14181Y4615D01*
G01X14255Y4615D02*
G01X14181Y4615D01*
G01X14085Y4425D02*
G01X14085Y4730D01*
G01X14085Y4425D02*
G01X13881Y4730D01*
G01X13881Y4425D02*
G01X13881Y4730D01*
G01X13785Y4425D02*
G01X13785Y4730D01*
G01X13785Y4425D02*
G01X13684Y4425D01*
G01X13640Y4440D01*
G01X13611Y4469D01*
G01X13597Y4498D01*
G01X13582Y4542D01*
G01X13582Y4615D01*
G01X13597Y4657D01*
G01X13611Y4686D01*
G01X13640Y4715D01*
G01X13684Y4730D01*
G01X13785Y4730D01*
G01X14400Y5425D02*
G01X14284Y5730D01*
G01X14167Y5425D02*
G01X14284Y5730D01*
G01X14071Y5425D02*
G01X14071Y5644D01*
G01X14056Y5686D01*
G01X14027Y5715D01*
G01X13984Y5730D01*
G01X13955Y5730D01*
G01X13910Y5715D01*
G01X13881Y5686D01*
G01X13868Y5644D01*
G01X13868Y5425D01*
G01X13568Y5469D02*
G01X13597Y5440D01*
G01X13640Y5425D01*
G01X13698Y5425D01*
G01X13743Y5440D01*
G01X13772Y5469D01*
G01X13772Y5498D01*
G01X13756Y5526D01*
G01X13743Y5542D01*
G01X13713Y5555D01*
G01X13626Y5584D01*
G01X13597Y5600D01*
G01X13582Y5615D01*
G01X13568Y5644D01*
G01X13568Y5686D01*
G01X13597Y5715D01*
G01X13640Y5730D01*
G01X13698Y5730D01*
G01X13743Y5715D01*
G01X13772Y5686D01*
G01X13472Y5425D02*
G01X13472Y5730D01*
G01X13472Y5425D02*
G01X13340Y5425D01*
G01X13297Y5440D01*
G01X13282Y5455D01*
G01X13268Y5484D01*
G01X13268Y5513D01*
G01X13282Y5542D01*
G01X13297Y5555D01*
G01X13340Y5571D01*
G01X13472Y5571D02*
G01X13340Y5571D01*
G01X13297Y5584D01*
G01X13282Y5600D01*
G01X13268Y5628D01*
G01X13268Y5673D01*
G01X13282Y5701D01*
G01X13297Y5715D01*
G01X13340Y5730D01*
G01X13472Y5730D01*
G01X14196Y6469D02*
G01X14225Y6440D01*
G01X14268Y6425D01*
G01X14327Y6425D01*
G01X14371Y6440D01*
G01X14400Y6469D01*
G01X14400Y6498D01*
G01X14385Y6526D01*
G01X14371Y6542D01*
G01X14342Y6555D01*
G01X14255Y6584D01*
G01X14225Y6600D01*
G01X14210Y6615D01*
G01X14196Y6644D01*
G01X14196Y6686D01*
G01X14225Y6715D01*
G01X14268Y6730D01*
G01X14327Y6730D01*
G01X14371Y6715D01*
G01X14400Y6686D01*
G01X14100Y6425D02*
G01X14100Y6730D01*
G01X14100Y6425D02*
G01X13998Y6425D01*
G01X13955Y6440D01*
G01X13926Y6469D01*
G01X13910Y6498D01*
G01X13897Y6542D01*
G01X13897Y6615D01*
G01X13910Y6657D01*
G01X13926Y6686D01*
G01X13955Y6715D01*
G01X13998Y6730D01*
G01X14100Y6730D01*
G01X13772Y6425D02*
G01X13611Y6425D01*
G01X13698Y6542D01*
G01X13655Y6542D01*
G01X13626Y6555D01*
G01X13611Y6571D01*
G01X13597Y6615D01*
G01X13597Y6644D01*
G01X13611Y6686D01*
G01X13640Y6715D01*
G01X13684Y6730D01*
G01X13727Y6730D01*
G01X13772Y6715D01*
G01X13785Y6701D01*
G01X13801Y6673D01*
G01X14196Y7469D02*
G01X14225Y7440D01*
G01X14268Y7425D01*
G01X14327Y7425D01*
G01X14371Y7440D01*
G01X14400Y7469D01*
G01X14400Y7498D01*
G01X14385Y7526D01*
G01X14371Y7542D01*
G01X14342Y7555D01*
G01X14255Y7584D01*
G01X14225Y7600D01*
G01X14210Y7615D01*
G01X14196Y7644D01*
G01X14196Y7686D01*
G01X14225Y7715D01*
G01X14268Y7730D01*
G01X14327Y7730D01*
G01X14371Y7715D01*
G01X14400Y7686D01*
G01X14100Y7425D02*
G01X14100Y7730D01*
G01X14100Y7425D02*
G01X13998Y7425D01*
G01X13955Y7440D01*
G01X13926Y7469D01*
G01X13910Y7498D01*
G01X13897Y7542D01*
G01X13897Y7615D01*
G01X13910Y7657D01*
G01X13926Y7686D01*
G01X13955Y7715D01*
G01X13998Y7730D01*
G01X14100Y7730D01*
G01X13785Y7498D02*
G01X13785Y7484D01*
G01X13772Y7455D01*
G01X13756Y7440D01*
G01X13727Y7425D01*
G01X13669Y7425D01*
G01X13640Y7440D01*
G01X13626Y7455D01*
G01X13611Y7484D01*
G01X13611Y7513D01*
G01X13626Y7542D01*
G01X13655Y7584D01*
G01X13801Y7730D01*
G01X13597Y7730D01*
G01X14196Y8469D02*
G01X14225Y8440D01*
G01X14268Y8425D01*
G01X14327Y8425D01*
G01X14371Y8440D01*
G01X14400Y8469D01*
G01X14400Y8498D01*
G01X14385Y8526D01*
G01X14371Y8542D01*
G01X14342Y8555D01*
G01X14255Y8584D01*
G01X14225Y8600D01*
G01X14210Y8615D01*
G01X14196Y8644D01*
G01X14196Y8686D01*
G01X14225Y8715D01*
G01X14268Y8730D01*
G01X14327Y8730D01*
G01X14371Y8715D01*
G01X14400Y8686D01*
G01X14100Y8425D02*
G01X14100Y8730D01*
G01X14100Y8425D02*
G01X13998Y8425D01*
G01X13955Y8440D01*
G01X13926Y8469D01*
G01X13910Y8498D01*
G01X13897Y8542D01*
G01X13897Y8615D01*
G01X13910Y8657D01*
G01X13926Y8686D01*
G01X13955Y8715D01*
G01X13998Y8730D01*
G01X14100Y8730D01*
G01X13801Y8484D02*
G01X13772Y8469D01*
G01X13727Y8425D01*
G01X13727Y8730D01*
G01X14181Y9498D02*
G01X14196Y9469D01*
G01X14225Y9440D01*
G01X14255Y9425D01*
G01X14313Y9425D01*
G01X14342Y9440D01*
G01X14371Y9469D01*
G01X14385Y9498D01*
G01X14400Y9542D01*
G01X14400Y9615D01*
G01X14385Y9657D01*
G01X14371Y9686D01*
G01X14342Y9715D01*
G01X14313Y9730D01*
G01X14255Y9730D01*
G01X14225Y9715D01*
G01X14196Y9686D01*
G01X14181Y9657D01*
G01X14085Y9425D02*
G01X14085Y9730D01*
G01X14085Y9425D02*
G01X13968Y9730D01*
G01X13852Y9425D02*
G01X13968Y9730D01*
G01X13852Y9425D02*
G01X13852Y9730D01*
G01X13756Y9425D02*
G01X13756Y9730D01*
G01X13756Y9425D02*
G01X13655Y9425D01*
G01X13611Y9440D01*
G01X13582Y9469D01*
G01X13568Y9498D01*
G01X13552Y9542D01*
G01X13552Y9615D01*
G01X13568Y9657D01*
G01X13582Y9686D01*
G01X13611Y9715D01*
G01X13655Y9730D01*
G01X13756Y9730D01*
G01X14196Y10469D02*
G01X14225Y10440D01*
G01X14268Y10425D01*
G01X14327Y10425D01*
G01X14371Y10440D01*
G01X14400Y10469D01*
G01X14400Y10498D01*
G01X14385Y10526D01*
G01X14371Y10542D01*
G01X14342Y10555D01*
G01X14255Y10584D01*
G01X14225Y10600D01*
G01X14210Y10615D01*
G01X14196Y10644D01*
G01X14196Y10686D01*
G01X14225Y10715D01*
G01X14268Y10730D01*
G01X14327Y10730D01*
G01X14371Y10715D01*
G01X14400Y10686D01*
G01X14100Y10425D02*
G01X14100Y10730D01*
G01X14100Y10425D02*
G01X13998Y10425D01*
G01X13955Y10440D01*
G01X13926Y10469D01*
G01X13910Y10498D01*
G01X13897Y10542D01*
G01X13897Y10615D01*
G01X13910Y10657D01*
G01X13926Y10686D01*
G01X13955Y10715D01*
G01X13998Y10730D01*
G01X14100Y10730D01*
G01X13713Y10425D02*
G01X13756Y10440D01*
G01X13785Y10484D01*
G01X13801Y10555D01*
G01X13801Y10600D01*
G01X13785Y10673D01*
G01X13756Y10715D01*
G01X13713Y10730D01*
G01X13684Y10730D01*
G01X13640Y10715D01*
G01X13611Y10673D01*
G01X13597Y10600D01*
G01X13597Y10555D01*
G01X13611Y10484D01*
G01X13640Y10440D01*
G01X13684Y10425D01*
G01X13713Y10425D01*
G01X14181Y11498D02*
G01X14196Y11469D01*
G01X14225Y11440D01*
G01X14255Y11425D01*
G01X14313Y11425D01*
G01X14342Y11440D01*
G01X14371Y11469D01*
G01X14385Y11498D01*
G01X14400Y11542D01*
G01X14400Y11615D01*
G01X14385Y11657D01*
G01X14371Y11686D01*
G01X14342Y11715D01*
G01X14313Y11730D01*
G01X14255Y11730D01*
G01X14225Y11715D01*
G01X14196Y11686D01*
G01X14181Y11657D01*
G01X14085Y11425D02*
G01X14085Y11730D01*
G01X14085Y11730D02*
G01X13910Y11730D01*
G01X13814Y11425D02*
G01X13814Y11730D01*
G01X13611Y11425D02*
G01X13814Y11628D01*
G01X13743Y11555D02*
G01X13611Y11730D01*
G01X14181Y12498D02*
G01X14196Y12469D01*
G01X14225Y12440D01*
G01X14255Y12425D01*
G01X14313Y12425D01*
G01X14342Y12440D01*
G01X14371Y12469D01*
G01X14385Y12498D01*
G01X14400Y12542D01*
G01X14400Y12615D01*
G01X14385Y12657D01*
G01X14371Y12686D01*
G01X14342Y12715D01*
G01X14313Y12730D01*
G01X14255Y12730D01*
G01X14225Y12715D01*
G01X14196Y12686D01*
G01X14181Y12657D01*
G01X14181Y12615D01*
G01X14255Y12615D02*
G01X14181Y12615D01*
G01X14085Y12425D02*
G01X14085Y12730D01*
G01X14085Y12425D02*
G01X13881Y12730D01*
G01X13881Y12425D02*
G01X13881Y12730D01*
G01X13785Y12425D02*
G01X13785Y12730D01*
G01X13785Y12425D02*
G01X13684Y12425D01*
G01X13640Y12440D01*
G01X13611Y12469D01*
G01X13597Y12498D01*
G01X13582Y12542D01*
G01X13582Y12615D01*
G01X13597Y12657D01*
G01X13611Y12686D01*
G01X13640Y12715D01*
G01X13684Y12730D01*
G01X13785Y12730D01*
G01X14371Y13425D02*
G01X14210Y13425D01*
G01X14297Y13542D01*
G01X14255Y13542D01*
G01X14225Y13555D01*
G01X14210Y13571D01*
G01X14196Y13615D01*
G01X14196Y13644D01*
G01X14210Y13686D01*
G01X14239Y13715D01*
G01X14284Y13730D01*
G01X14327Y13730D01*
G01X14371Y13715D01*
G01X14385Y13701D01*
G01X14400Y13673D01*
G01X14100Y13425D02*
G01X13984Y13730D01*
G01X13868Y13425D02*
G01X13984Y13730D01*
G01X13743Y13425D02*
G01X13582Y13425D01*
G01X13669Y13542D01*
G01X13626Y13542D01*
G01X13597Y13555D01*
G01X13582Y13571D01*
G01X13568Y13615D01*
G01X13568Y13644D01*
G01X13582Y13686D01*
G01X13611Y13715D01*
G01X13655Y13730D01*
G01X13698Y13730D01*
G01X13743Y13715D01*
G01X13756Y13701D01*
G01X13772Y13673D01*
G01X14400Y14425D02*
G01X14400Y14730D01*
G01X14400Y14425D02*
G01X14210Y14425D01*
G01X14400Y14571D02*
G01X14284Y14571D01*
G01X14400Y14730D02*
G01X14210Y14730D01*
G01X14114Y14425D02*
G01X14114Y14730D01*
G01X14114Y14425D02*
G01X13910Y14730D01*
G01X13910Y14425D02*
G01X13910Y14730D01*
G01X14400Y15425D02*
G01X14400Y15730D01*
G01X14400Y15425D02*
G01X14268Y15425D01*
G01X14225Y15440D01*
G01X14210Y15455D01*
G01X14196Y15484D01*
G01X14196Y15513D01*
G01X14210Y15542D01*
G01X14225Y15555D01*
G01X14268Y15571D01*
G01X14400Y15571D01*
G01X14297Y15571D02*
G01X14196Y15730D01*
G01X13897Y15469D02*
G01X13926Y15440D01*
G01X13968Y15425D01*
G01X14027Y15425D01*
G01X14071Y15440D01*
G01X14100Y15469D01*
G01X14100Y15498D01*
G01X14085Y15526D01*
G01X14071Y15542D01*
G01X14042Y15555D01*
G01X13955Y15584D01*
G01X13926Y15600D01*
G01X13910Y15615D01*
G01X13897Y15644D01*
G01X13897Y15686D01*
G01X13926Y15715D01*
G01X13968Y15730D01*
G01X14027Y15730D01*
G01X14071Y15715D01*
G01X14100Y15686D01*
G01X13698Y15425D02*
G01X13698Y15730D01*
G01X13801Y15425D02*
G01X13597Y15425D01*
G01X14181Y16498D02*
G01X14196Y16469D01*
G01X14225Y16440D01*
G01X14255Y16425D01*
G01X14313Y16425D01*
G01X14342Y16440D01*
G01X14371Y16469D01*
G01X14385Y16498D01*
G01X14400Y16542D01*
G01X14400Y16615D01*
G01X14385Y16657D01*
G01X14371Y16686D01*
G01X14342Y16715D01*
G01X14313Y16730D01*
G01X14255Y16730D01*
G01X14225Y16715D01*
G01X14196Y16686D01*
G01X14181Y16657D01*
G01X14181Y16615D01*
G01X14255Y16615D02*
G01X14181Y16615D01*
G01X14085Y16425D02*
G01X14085Y16730D01*
G01X14085Y16425D02*
G01X13881Y16730D01*
G01X13881Y16425D02*
G01X13881Y16730D01*
G01X13785Y16425D02*
G01X13785Y16730D01*
G01X13785Y16425D02*
G01X13684Y16425D01*
G01X13640Y16440D01*
G01X13611Y16469D01*
G01X13597Y16498D01*
G01X13582Y16542D01*
G01X13582Y16615D01*
G01X13597Y16657D01*
G01X13611Y16686D01*
G01X13640Y16715D01*
G01X13684Y16730D01*
G01X13785Y16730D01*
G01X14400Y17425D02*
G01X14284Y17730D01*
G01X14167Y17425D02*
G01X14284Y17730D01*
G01X14071Y17425D02*
G01X14071Y17730D01*
G01X13975Y17425D02*
G01X13975Y17730D01*
G01X13975Y17425D02*
G01X13772Y17730D01*
G01X13772Y17425D02*
G01X13772Y17730D01*
G01X7231Y17400D02*
G01X7071Y17400D01*
G01X7157Y17517D01*
G01X7114Y17517D01*
G01X7085Y17531D01*
G01X7071Y17546D01*
G01X7056Y17590D01*
G01X7056Y17619D01*
G01X7071Y17662D01*
G01X7100Y17691D01*
G01X7143Y17706D01*
G01X7186Y17706D01*
G01X7231Y17691D01*
G01X7244Y17677D01*
G01X7260Y17648D01*
G01X6960Y17400D02*
G01X6843Y17706D01*
G01X6727Y17400D02*
G01X6843Y17706D01*
G01X6602Y17400D02*
G01X6443Y17400D01*
G01X6530Y17517D01*
G01X6485Y17517D01*
G01X6456Y17531D01*
G01X6443Y17546D01*
G01X6427Y17590D01*
G01X6427Y17619D01*
G01X6443Y17662D01*
G01X6472Y17691D01*
G01X6514Y17706D01*
G01X6559Y17706D01*
G01X6602Y17691D01*
G01X6617Y17677D01*
G01X6631Y17648D01*
G01X7027Y16473D02*
G01X7041Y16444D01*
G01X7070Y16415D01*
G01X7100Y16400D01*
G01X7158Y16400D01*
G01X7187Y16415D01*
G01X7216Y16444D01*
G01X7230Y16473D01*
G01X7245Y16517D01*
G01X7245Y16590D01*
G01X7230Y16633D01*
G01X7216Y16662D01*
G01X7187Y16691D01*
G01X7158Y16706D01*
G01X7100Y16706D01*
G01X7070Y16691D01*
G01X7041Y16662D01*
G01X7027Y16633D01*
G01X7027Y16590D01*
G01X7100Y16590D02*
G01X7027Y16590D01*
G01X6931Y16400D02*
G01X6931Y16706D01*
G01X6931Y16400D02*
G01X6727Y16706D01*
G01X6727Y16400D02*
G01X6727Y16706D01*
G01X6631Y16400D02*
G01X6631Y16706D01*
G01X6631Y16400D02*
G01X6529Y16400D01*
G01X6486Y16415D01*
G01X6457Y16444D01*
G01X6442Y16473D01*
G01X6428Y16517D01*
G01X6428Y16590D01*
G01X6442Y16633D01*
G01X6457Y16662D01*
G01X6486Y16691D01*
G01X6529Y16706D01*
G01X6631Y16706D01*
G01X7100Y15400D02*
G01X7100Y15706D01*
G01X7100Y15400D02*
G01X6997Y15400D01*
G01X6955Y15415D01*
G01X6925Y15444D01*
G01X6910Y15473D01*
G01X6896Y15517D01*
G01X6896Y15590D01*
G01X6910Y15633D01*
G01X6925Y15662D01*
G01X6955Y15691D01*
G01X6997Y15706D01*
G01X7100Y15706D01*
G01X6800Y15459D02*
G01X6771Y15444D01*
G01X6727Y15400D01*
G01X6727Y15706D01*
G01X6543Y15400D02*
G01X6588Y15415D01*
G01X6617Y15459D01*
G01X6631Y15531D01*
G01X6631Y15575D01*
G01X6617Y15648D01*
G01X6588Y15691D01*
G01X6543Y15706D01*
G01X6514Y15706D01*
G01X6472Y15691D01*
G01X6443Y15648D01*
G01X6427Y15575D01*
G01X6427Y15531D01*
G01X6443Y15459D01*
G01X6472Y15415D01*
G01X6514Y15400D01*
G01X6543Y15400D01*
G01X6917Y14400D02*
G01X6917Y14706D01*
G01X6917Y14400D02*
G01X6815Y14400D01*
G01X6772Y14415D01*
G01X6742Y14444D01*
G01X6728Y14473D01*
G01X6713Y14517D01*
G01X6713Y14590D01*
G01X6728Y14633D01*
G01X6742Y14662D01*
G01X6772Y14691D01*
G01X6815Y14706D01*
G01X6917Y14706D01*
G01X6428Y14502D02*
G01X6443Y14546D01*
G01X6472Y14575D01*
G01X6516Y14590D01*
G01X6530Y14590D01*
G01X6574Y14575D01*
G01X6603Y14546D01*
G01X6617Y14502D01*
G01X6617Y14488D01*
G01X6603Y14444D01*
G01X6574Y14415D01*
G01X6530Y14400D01*
G01X6516Y14400D01*
G01X6472Y14415D01*
G01X6443Y14444D01*
G01X6428Y14502D01*
G01X6428Y14575D01*
G01X6443Y14648D01*
G01X6472Y14691D01*
G01X6516Y14706D01*
G01X6545Y14706D01*
G01X6588Y14691D01*
G01X6603Y14662D01*
G01X6931Y13400D02*
G01X6931Y13706D01*
G01X6931Y13400D02*
G01X6829Y13400D01*
G01X6786Y13415D01*
G01X6756Y13444D01*
G01X6742Y13473D01*
G01X6727Y13517D01*
G01X6727Y13590D01*
G01X6742Y13633D01*
G01X6756Y13662D01*
G01X6786Y13691D01*
G01X6829Y13706D01*
G01X6931Y13706D01*
G01X6559Y13400D02*
G01X6602Y13415D01*
G01X6617Y13444D01*
G01X6617Y13473D01*
G01X6602Y13502D01*
G01X6573Y13517D01*
G01X6515Y13531D01*
G01X6471Y13546D01*
G01X6442Y13575D01*
G01X6428Y13604D01*
G01X6428Y13648D01*
G01X6442Y13677D01*
G01X6457Y13691D01*
G01X6500Y13706D01*
G01X6559Y13706D01*
G01X6602Y13691D01*
G01X6617Y13677D01*
G01X6631Y13648D01*
G01X6631Y13604D01*
G01X6617Y13575D01*
G01X6588Y13546D01*
G01X6544Y13531D01*
G01X6486Y13517D01*
G01X6457Y13502D01*
G01X6442Y13473D01*
G01X6442Y13444D01*
G01X6457Y13415D01*
G01X6500Y13400D01*
G01X6559Y13400D01*
G01X6931Y12400D02*
G01X6931Y12706D01*
G01X6931Y12400D02*
G01X6829Y12400D01*
G01X6786Y12415D01*
G01X6756Y12444D01*
G01X6742Y12473D01*
G01X6727Y12517D01*
G01X6727Y12590D01*
G01X6742Y12633D01*
G01X6756Y12662D01*
G01X6786Y12691D01*
G01X6829Y12706D01*
G01X6931Y12706D01*
G01X6428Y12400D02*
G01X6573Y12706D01*
G01X6631Y12400D02*
G01X6428Y12400D01*
G01X6917Y11400D02*
G01X6917Y11706D01*
G01X6917Y11400D02*
G01X6814Y11400D01*
G01X6772Y11415D01*
G01X6742Y11444D01*
G01X6727Y11473D01*
G01X6713Y11517D01*
G01X6713Y11590D01*
G01X6727Y11633D01*
G01X6742Y11662D01*
G01X6772Y11691D01*
G01X6814Y11706D01*
G01X6917Y11706D01*
G01X6443Y11444D02*
G01X6456Y11415D01*
G01X6501Y11400D01*
G01X6530Y11400D01*
G01X6573Y11415D01*
G01X6602Y11459D01*
G01X6617Y11531D01*
G01X6617Y11604D01*
G01X6602Y11662D01*
G01X6573Y11691D01*
G01X6530Y11706D01*
G01X6515Y11706D01*
G01X6472Y11691D01*
G01X6443Y11662D01*
G01X6427Y11619D01*
G01X6427Y11604D01*
G01X6443Y11560D01*
G01X6472Y11531D01*
G01X6515Y11517D01*
G01X6530Y11517D01*
G01X6573Y11531D01*
G01X6602Y11560D01*
G01X6617Y11604D01*
G01X6931Y10400D02*
G01X6931Y10706D01*
G01X6931Y10400D02*
G01X6829Y10400D01*
G01X6786Y10415D01*
G01X6756Y10444D01*
G01X6742Y10473D01*
G01X6727Y10517D01*
G01X6727Y10590D01*
G01X6742Y10633D01*
G01X6756Y10662D01*
G01X6786Y10691D01*
G01X6829Y10706D01*
G01X6931Y10706D01*
G01X6457Y10400D02*
G01X6602Y10400D01*
G01X6617Y10531D01*
G01X6602Y10517D01*
G01X6559Y10502D01*
G01X6515Y10502D01*
G01X6471Y10517D01*
G01X6442Y10546D01*
G01X6428Y10590D01*
G01X6428Y10619D01*
G01X6442Y10662D01*
G01X6471Y10691D01*
G01X6515Y10706D01*
G01X6559Y10706D01*
G01X6602Y10691D01*
G01X6617Y10677D01*
G01X6631Y10648D01*
G01X7027Y9473D02*
G01X7041Y9444D01*
G01X7070Y9415D01*
G01X7100Y9400D01*
G01X7158Y9400D01*
G01X7187Y9415D01*
G01X7216Y9444D01*
G01X7230Y9473D01*
G01X7245Y9517D01*
G01X7245Y9590D01*
G01X7230Y9633D01*
G01X7216Y9662D01*
G01X7187Y9691D01*
G01X7158Y9706D01*
G01X7100Y9706D01*
G01X7070Y9691D01*
G01X7041Y9662D01*
G01X7027Y9633D01*
G01X7027Y9590D01*
G01X7100Y9590D02*
G01X7027Y9590D01*
G01X6931Y9400D02*
G01X6931Y9706D01*
G01X6931Y9400D02*
G01X6727Y9706D01*
G01X6727Y9400D02*
G01X6727Y9706D01*
G01X6631Y9400D02*
G01X6631Y9706D01*
G01X6631Y9400D02*
G01X6529Y9400D01*
G01X6486Y9415D01*
G01X6457Y9444D01*
G01X6442Y9473D01*
G01X6428Y9517D01*
G01X6428Y9590D01*
G01X6442Y9633D01*
G01X6457Y9662D01*
G01X6486Y9691D01*
G01X6529Y9706D01*
G01X6631Y9706D01*
G01X7231Y8400D02*
G01X7071Y8400D01*
G01X7157Y8517D01*
G01X7114Y8517D01*
G01X7085Y8531D01*
G01X7071Y8546D01*
G01X7056Y8590D01*
G01X7056Y8619D01*
G01X7071Y8662D01*
G01X7100Y8691D01*
G01X7143Y8706D01*
G01X7186Y8706D01*
G01X7231Y8691D01*
G01X7244Y8677D01*
G01X7260Y8648D01*
G01X6960Y8400D02*
G01X6843Y8706D01*
G01X6727Y8400D02*
G01X6843Y8706D01*
G01X6602Y8400D02*
G01X6443Y8400D01*
G01X6530Y8517D01*
G01X6485Y8517D01*
G01X6456Y8531D01*
G01X6443Y8546D01*
G01X6427Y8590D01*
G01X6427Y8619D01*
G01X6443Y8662D01*
G01X6472Y8691D01*
G01X6514Y8706D01*
G01X6559Y8706D01*
G01X6602Y8691D01*
G01X6617Y8677D01*
G01X6631Y8648D01*
G01X6946Y7400D02*
G01X6946Y7706D01*
G01X6946Y7400D02*
G01X6844Y7400D01*
G01X6801Y7415D01*
G01X6771Y7444D01*
G01X6757Y7473D01*
G01X6742Y7517D01*
G01X6742Y7590D01*
G01X6757Y7633D01*
G01X6771Y7662D01*
G01X6801Y7691D01*
G01X6844Y7706D01*
G01X6946Y7706D01*
G01X6501Y7400D02*
G01X6646Y7604D01*
G01X6428Y7604D01*
G01X6501Y7400D02*
G01X6501Y7706D01*
G01X6931Y6400D02*
G01X6931Y6706D01*
G01X6931Y6400D02*
G01X6829Y6400D01*
G01X6786Y6415D01*
G01X6756Y6444D01*
G01X6742Y6473D01*
G01X6727Y6517D01*
G01X6727Y6590D01*
G01X6742Y6633D01*
G01X6756Y6662D01*
G01X6786Y6691D01*
G01X6829Y6706D01*
G01X6931Y6706D01*
G01X6602Y6400D02*
G01X6442Y6400D01*
G01X6530Y6517D01*
G01X6486Y6517D01*
G01X6457Y6531D01*
G01X6442Y6546D01*
G01X6428Y6590D01*
G01X6428Y6619D01*
G01X6442Y6662D01*
G01X6471Y6691D01*
G01X6515Y6706D01*
G01X6559Y6706D01*
G01X6602Y6691D01*
G01X6617Y6677D01*
G01X6631Y6648D01*
G01X6931Y5400D02*
G01X6931Y5706D01*
G01X6931Y5400D02*
G01X6829Y5400D01*
G01X6786Y5415D01*
G01X6756Y5444D01*
G01X6742Y5473D01*
G01X6727Y5517D01*
G01X6727Y5590D01*
G01X6742Y5633D01*
G01X6756Y5662D01*
G01X6786Y5691D01*
G01X6829Y5706D01*
G01X6931Y5706D01*
G01X6617Y5473D02*
G01X6617Y5459D01*
G01X6602Y5430D01*
G01X6588Y5415D01*
G01X6559Y5400D01*
G01X6500Y5400D01*
G01X6471Y5415D01*
G01X6457Y5430D01*
G01X6442Y5459D01*
G01X6442Y5488D01*
G01X6457Y5517D01*
G01X6486Y5560D01*
G01X6631Y5706D01*
G01X6428Y5706D01*
G01X6800Y4400D02*
G01X6800Y4706D01*
G01X6800Y4400D02*
G01X6698Y4400D01*
G01X6655Y4415D01*
G01X6625Y4444D01*
G01X6611Y4473D01*
G01X6596Y4517D01*
G01X6596Y4590D01*
G01X6611Y4633D01*
G01X6625Y4662D01*
G01X6655Y4691D01*
G01X6698Y4706D01*
G01X6800Y4706D01*
G01X6500Y4459D02*
G01X6471Y4444D01*
G01X6428Y4400D01*
G01X6428Y4706D01*
G01X6900Y3400D02*
G01X6900Y3706D01*
G01X6900Y3400D02*
G01X6797Y3400D01*
G01X6755Y3415D01*
G01X6725Y3444D01*
G01X6710Y3473D01*
G01X6696Y3517D01*
G01X6696Y3590D01*
G01X6710Y3633D01*
G01X6725Y3662D01*
G01X6755Y3691D01*
G01X6797Y3706D01*
G01X6900Y3706D01*
G01X6513Y3400D02*
G01X6556Y3415D01*
G01X6585Y3459D01*
G01X6600Y3531D01*
G01X6600Y3575D01*
G01X6585Y3648D01*
G01X6556Y3691D01*
G01X6513Y3706D01*
G01X6484Y3706D01*
G01X6439Y3691D01*
G01X6410Y3648D01*
G01X6397Y3575D01*
G01X6397Y3531D01*
G01X6410Y3459D01*
G01X6439Y3415D01*
G01X6484Y3400D01*
G01X6513Y3400D01*
G54D23*
G01X12800Y11692D02*
G01X12800Y12455D01*
G01X12800Y11692D02*
G01X12290Y12455D01*
G01X12290Y11692D02*
G01X12290Y12455D01*
G01X11868Y11946D02*
G01X11942Y11984D01*
G01X12014Y12055D01*
G01X12051Y12165D01*
G01X12051Y12238D01*
G01X12014Y12346D01*
G01X11942Y12419D01*
G01X11868Y12455D01*
G01X11760Y12455D01*
G01X11686Y12419D01*
G01X11614Y12346D01*
G01X11577Y12238D01*
G01X11577Y12165D01*
G01X11614Y12055D01*
G01X11686Y11984D01*
G01X11760Y11946D01*
G01X11868Y11946D01*
G01X10902Y11692D02*
G01X10902Y12455D01*
G01X10902Y12055D02*
G01X10975Y11984D01*
G01X11047Y11946D01*
G01X11156Y11946D01*
G01X11228Y11984D01*
G01X11302Y12055D01*
G01X11338Y12165D01*
G01X11338Y12238D01*
G01X11302Y12346D01*
G01X11228Y12419D01*
G01X11156Y12455D01*
G01X11047Y12455D01*
G01X10975Y12419D01*
G01X10902Y12346D01*
G01X10661Y12165D02*
G01X10225Y12165D01*
G01X10225Y12092D01*
G01X10261Y12019D01*
G01X10297Y11984D01*
G01X10371Y11946D01*
G01X10480Y11946D01*
G01X10552Y11984D01*
G01X10625Y12055D01*
G01X10661Y12165D01*
G01X10661Y12238D01*
G01X10625Y12346D01*
G01X10552Y12419D01*
G01X10480Y12455D01*
G01X10371Y12455D01*
G01X10297Y12419D01*
G01X10225Y12346D01*
G01X9985Y11692D02*
G01X9985Y12455D01*
G01X9985Y11692D02*
G01X9694Y12455D01*
G01X9403Y11692D02*
G01X9694Y12455D01*
G01X9403Y11692D02*
G01X9403Y12455D01*
G01X8618Y11875D02*
G01X8655Y11801D01*
G01X8727Y11728D01*
G01X8800Y11692D01*
G01X8944Y11692D01*
G01X9018Y11728D01*
G01X9090Y11801D01*
G01X9127Y11875D01*
G01X9164Y11984D01*
G01X9164Y12165D01*
G01X9127Y12275D01*
G01X9090Y12346D01*
G01X9018Y12419D01*
G01X8944Y12455D01*
G01X8800Y12455D01*
G01X8727Y12419D01*
G01X8655Y12346D01*
G01X8618Y12275D01*
G01X8377Y11692D02*
G01X8377Y12238D01*
G01X8342Y12346D01*
G01X8268Y12419D01*
G01X8160Y12455D01*
G01X8086Y12455D01*
G01X7977Y12419D01*
G01X7905Y12346D01*
G01X7868Y12238D01*
G01X7868Y11692D01*
G01X12800Y12892D02*
G01X12509Y13655D01*
G01X12218Y12892D02*
G01X12509Y13655D01*
G01X11905Y12892D02*
G01X11505Y12892D01*
G01X11723Y13184D01*
G01X11614Y13184D01*
G01X11542Y13219D01*
G01X11505Y13255D01*
G01X11468Y13365D01*
G01X11468Y13438D01*
G01X11505Y13546D01*
G01X11577Y13619D01*
G01X11686Y13655D01*
G01X11796Y13655D01*
G01X11905Y13619D01*
G01X11942Y13584D01*
G01X11977Y13511D01*
G54D25*
G01X34814Y20502D02*
G01X34385Y20502D01*
G01X34814Y20502D02*
G01X34814Y20359D01*
G01X34794Y20297D01*
G01X34753Y20257D01*
G01X34712Y20236D01*
G01X34650Y20216D01*
G01X34548Y20216D01*
G01X34487Y20236D01*
G01X34446Y20257D01*
G01X34405Y20297D01*
G01X34385Y20359D01*
G01X34385Y20502D01*
G01X34712Y19774D02*
G01X34753Y19794D01*
G01X34794Y19835D01*
G01X34814Y19876D01*
G01X34814Y19958D01*
G01X34794Y19999D01*
G01X34753Y20040D01*
G01X34712Y20060D01*
G01X34650Y20081D01*
G01X34548Y20081D01*
G01X34487Y20060D01*
G01X34446Y20040D01*
G01X34405Y19999D01*
G01X34385Y19958D01*
G01X34385Y19876D01*
G01X34405Y19835D01*
G01X34446Y19794D01*
G01X34487Y19774D01*
G01X34814Y19434D02*
G01X34487Y19434D01*
G01X34425Y19455D01*
G01X34405Y19475D01*
G01X34385Y19516D01*
G01X34385Y19557D01*
G01X34405Y19598D01*
G01X34425Y19618D01*
G01X34487Y19639D01*
G01X34528Y19639D01*
G01X34814Y19177D02*
G01X34794Y19238D01*
G01X34732Y19279D01*
G01X34630Y19299D01*
G01X34569Y19299D01*
G01X34466Y19279D01*
G01X34405Y19238D01*
G01X34385Y19177D01*
G01X34385Y19136D01*
G01X34405Y19074D01*
G01X34466Y19033D01*
G01X34569Y19013D01*
G01X34630Y19013D01*
G01X34732Y19033D01*
G01X34794Y19074D01*
G01X34814Y19136D01*
G01X34814Y19177D01*
G01X34712Y18857D02*
G01X34732Y18857D01*
G01X34773Y18837D01*
G01X34794Y18817D01*
G01X34814Y18776D01*
G01X34814Y18694D01*
G01X34794Y18653D01*
G01X34773Y18632D01*
G01X34732Y18612D01*
G01X34691Y18612D01*
G01X34650Y18632D01*
G01X34589Y18673D01*
G01X34385Y18878D01*
G01X34385Y18592D01*
G01X34814Y18334D02*
G01X34794Y18395D01*
G01X34732Y18436D01*
G01X34630Y18457D01*
G01X34569Y18457D01*
G01X34466Y18436D01*
G01X34405Y18395D01*
G01X34385Y18334D01*
G01X34385Y18293D01*
G01X34405Y18232D01*
G01X34466Y18191D01*
G01X34569Y18170D01*
G01X34630Y18170D01*
G01X34732Y18191D01*
G01X34794Y18232D01*
G01X34814Y18293D01*
G01X34814Y18334D01*
G01X34712Y18015D02*
G01X34732Y18015D01*
G01X34773Y17994D01*
G01X34794Y17974D01*
G01X34814Y17933D01*
G01X34814Y17851D01*
G01X34794Y17810D01*
G01X34773Y17790D01*
G01X34732Y17769D01*
G01X34691Y17769D01*
G01X34650Y17790D01*
G01X34589Y17831D01*
G01X34385Y18035D01*
G01X34385Y17749D01*
G01X23850Y20953D02*
G01X23850Y20525D01*
G01X23850Y20953D02*
G01X24034Y20953D01*
G01X24095Y20934D01*
G01X24116Y20913D01*
G01X24136Y20871D01*
G01X24136Y20830D01*
G01X24116Y20790D01*
G01X24095Y20769D01*
G01X24034Y20750D01*
G01X23850Y20750D01*
G01X23993Y20750D02*
G01X24136Y20525D01*
G01X24271Y20871D02*
G01X24312Y20892D01*
G01X24374Y20953D01*
G01X24374Y20525D01*
G01X24509Y20769D02*
G01X24877Y20769D01*
G01X24509Y20646D02*
G01X24877Y20646D01*
G01X25032Y20852D02*
G01X25032Y20871D01*
G01X25053Y20913D01*
G01X25073Y20934D01*
G01X25114Y20953D01*
G01X25196Y20953D01*
G01X25237Y20934D01*
G01X25257Y20913D01*
G01X25278Y20871D01*
G01X25278Y20830D01*
G01X25257Y20790D01*
G01X25216Y20728D01*
G01X25012Y20525D01*
G01X25298Y20525D01*
G01X25454Y20852D02*
G01X25454Y20871D01*
G01X25474Y20913D01*
G01X25494Y20934D01*
G01X25535Y20953D01*
G01X25617Y20953D01*
G01X25658Y20934D01*
G01X25679Y20913D01*
G01X25699Y20871D01*
G01X25699Y20830D01*
G01X25679Y20790D01*
G01X25638Y20728D01*
G01X25433Y20525D01*
G01X25719Y20525D01*
G01X25977Y20953D02*
G01X25916Y20934D01*
G01X25875Y20871D01*
G01X25854Y20769D01*
G01X25854Y20709D01*
G01X25875Y20605D01*
G01X25916Y20544D01*
G01X25977Y20525D01*
G01X26018Y20525D01*
G01X26079Y20544D01*
G01X26120Y20605D01*
G01X26141Y20709D01*
G01X26141Y20769D01*
G01X26120Y20871D01*
G01X26079Y20934D01*
G01X26018Y20953D01*
G01X25977Y20953D01*
G01X30156Y14101D02*
G01X30135Y14142D01*
G01X30094Y14184D01*
G01X30055Y14203D01*
G01X29972Y14203D01*
G01X29931Y14184D01*
G01X29890Y14142D01*
G01X29869Y14101D01*
G01X29850Y14040D01*
G01X29850Y13938D01*
G01X29869Y13876D01*
G01X29890Y13836D01*
G01X29931Y13794D01*
G01X29972Y13775D01*
G01X30055Y13775D01*
G01X30094Y13794D01*
G01X30135Y13836D01*
G01X30156Y13876D01*
G01X30311Y14101D02*
G01X30311Y14121D01*
G01X30332Y14163D01*
G01X30352Y14184D01*
G01X30393Y14203D01*
G01X30476Y14203D01*
G01X30517Y14184D01*
G01X30536Y14163D01*
G01X30557Y14121D01*
G01X30557Y14080D01*
G01X30536Y14040D01*
G01X30496Y13978D01*
G01X30292Y13775D01*
G01X30577Y13775D01*
G01X30713Y14019D02*
G01X31081Y14019D01*
G01X30713Y13896D02*
G01X31081Y13896D01*
G01X31215Y14121D02*
G01X31256Y14142D01*
G01X31318Y14203D01*
G01X31318Y13775D01*
G01X31576Y14203D02*
G01X31514Y14184D01*
G01X31473Y14121D01*
G01X31453Y14019D01*
G01X31453Y13959D01*
G01X31473Y13855D01*
G01X31514Y13794D01*
G01X31576Y13775D01*
G01X31617Y13775D01*
G01X31678Y13794D01*
G01X31719Y13855D01*
G01X31739Y13959D01*
G01X31739Y14019D01*
G01X31719Y14121D01*
G01X31678Y14184D01*
G01X31617Y14203D01*
G01X31576Y14203D01*
G01X31997Y14203D02*
G01X31935Y14184D01*
G01X31894Y14121D01*
G01X31875Y14019D01*
G01X31875Y13959D01*
G01X31894Y13855D01*
G01X31935Y13794D01*
G01X31997Y13775D01*
G01X32039Y13775D01*
G01X32100Y13794D01*
G01X32140Y13855D01*
G01X32160Y13959D01*
G01X32160Y14019D01*
G01X32140Y14121D01*
G01X32100Y14184D01*
G01X32039Y14203D01*
G01X31997Y14203D01*
G01X32296Y14203D02*
G01X32296Y13896D01*
G01X32317Y13836D01*
G01X32357Y13794D01*
G01X32418Y13775D01*
G01X32460Y13775D01*
G01X32521Y13794D01*
G01X32561Y13836D01*
G01X32582Y13896D01*
G01X32582Y14203D01*
G01X32718Y14203D02*
G01X32718Y13775D01*
G01X32718Y14203D02*
G01X32984Y14203D01*
G01X32718Y14000D02*
G01X32881Y14000D01*
G01X35306Y13951D02*
G01X35285Y13992D01*
G01X35244Y14034D01*
G01X35205Y14053D01*
G01X35122Y14053D01*
G01X35081Y14034D01*
G01X35040Y13992D01*
G01X35019Y13951D01*
G01X35000Y13890D01*
G01X35000Y13788D01*
G01X35019Y13726D01*
G01X35040Y13686D01*
G01X35081Y13644D01*
G01X35122Y13625D01*
G01X35205Y13625D01*
G01X35244Y13644D01*
G01X35285Y13686D01*
G01X35306Y13726D01*
G01X35442Y13971D02*
G01X35482Y13992D01*
G01X35543Y14053D01*
G01X35543Y13625D01*
G01X35679Y13869D02*
G01X36047Y13869D01*
G01X35679Y13746D02*
G01X36047Y13746D01*
G01X36386Y14053D02*
G01X36181Y13767D01*
G01X36489Y13767D01*
G01X36386Y14053D02*
G01X36386Y13625D01*
G01X36910Y14053D02*
G01X36706Y13625D01*
G01X36623Y14053D02*
G01X36910Y14053D01*
G01X37168Y14053D02*
G01X37106Y14034D01*
G01X37065Y13971D01*
G01X37044Y13869D01*
G01X37044Y13809D01*
G01X37065Y13705D01*
G01X37106Y13644D01*
G01X37168Y13625D01*
G01X37209Y13625D01*
G01X37269Y13644D01*
G01X37310Y13705D01*
G01X37331Y13809D01*
G01X37331Y13869D01*
G01X37310Y13971D01*
G01X37269Y14034D01*
G01X37209Y14053D01*
G01X37168Y14053D01*
G01X37467Y14053D02*
G01X37467Y13746D01*
G01X37486Y13686D01*
G01X37527Y13644D01*
G01X37589Y13625D01*
G01X37630Y13625D01*
G01X37692Y13644D01*
G01X37732Y13686D01*
G01X37752Y13746D01*
G01X37752Y14053D01*
G01X37888Y14053D02*
G01X37888Y13625D01*
G01X37888Y14053D02*
G01X38154Y14053D01*
G01X37888Y13850D02*
G01X38052Y13850D01*
G54D23*
G01X31318Y907D02*
G01X31301Y944D01*
G01X31264Y978D01*
G01X31228Y996D01*
G01X31156Y996D01*
G01X31122Y978D01*
G01X31085Y944D01*
G01X31068Y907D01*
G01X31050Y853D01*
G01X31050Y765D01*
G01X31068Y711D01*
G01X31085Y675D01*
G01X31122Y638D01*
G01X31156Y621D01*
G01X31228Y621D01*
G01X31264Y638D01*
G01X31301Y675D01*
G01X31318Y711D01*
G01X31318Y765D01*
G01X31228Y765D02*
G01X31318Y765D01*
G01X31436Y996D02*
G01X31436Y621D01*
G01X31436Y996D02*
G01X31686Y621D01*
G01X31686Y996D02*
G01X31686Y621D01*
G01X31805Y996D02*
G01X31805Y621D01*
G01X31805Y996D02*
G01X31930Y996D01*
G01X31984Y978D01*
G01X32019Y944D01*
G01X32038Y907D01*
G01X32056Y853D01*
G01X32056Y765D01*
G01X32038Y711D01*
G01X32019Y675D01*
G01X31984Y638D01*
G01X31930Y621D01*
G01X31805Y621D01*
G01X32448Y996D02*
G01X32593Y621D01*
G01X32735Y996D02*
G01X32593Y621D01*
G01X33122Y907D02*
G01X33104Y944D01*
G01X33068Y978D01*
G01X33032Y996D01*
G01X32960Y996D01*
G01X32925Y978D01*
G01X32889Y944D01*
G01X32872Y907D01*
G01X32854Y853D01*
G01X32854Y765D01*
G01X32872Y711D01*
G01X32889Y675D01*
G01X32925Y638D01*
G01X32960Y621D01*
G01X33032Y621D01*
G01X33068Y638D01*
G01X33104Y675D01*
G01X33122Y711D01*
G01X33509Y907D02*
G01X33490Y944D01*
G01X33455Y978D01*
G01X33418Y996D01*
G01X33347Y996D01*
G01X33311Y978D01*
G01X33276Y944D01*
G01X33257Y907D01*
G01X33239Y853D01*
G01X33239Y765D01*
G01X33257Y711D01*
G01X33276Y675D01*
G01X33311Y638D01*
G01X33347Y621D01*
G01X33418Y621D01*
G01X33455Y638D01*
G01X33490Y675D01*
G01X33509Y711D01*
G01X30950Y3246D02*
G01X30950Y2871D01*
G01X30950Y3246D02*
G01X31110Y3246D01*
G01X31164Y3228D01*
G01X31182Y3211D01*
G01X31201Y3176D01*
G01X31201Y3140D01*
G01X31182Y3103D01*
G01X31164Y3086D01*
G01X31110Y3067D01*
G01X30950Y3067D02*
G01X31110Y3067D01*
G01X31164Y3050D01*
G01X31182Y3032D01*
G01X31201Y2996D01*
G01X31201Y2942D01*
G01X31182Y2907D01*
G01X31164Y2888D01*
G01X31110Y2871D01*
G01X30950Y2871D01*
G01X31461Y3246D02*
G01X31318Y2871D01*
G01X31461Y3246D02*
G01X31605Y2871D01*
G01X31372Y2996D02*
G01X31551Y2996D01*
G01X31847Y3246D02*
G01X31847Y2871D01*
G01X31722Y3246D02*
G01X31973Y3246D01*
G01X32217Y3246D02*
G01X32217Y2871D01*
G01X32092Y3246D02*
G01X32342Y3246D01*
G01X32460Y3246D02*
G01X32460Y2871D01*
G01X32460Y3246D02*
G01X32693Y3246D01*
G01X32460Y3067D02*
G01X32603Y3067D01*
G01X32460Y2871D02*
G01X32693Y2871D01*
G01X32810Y3246D02*
G01X32810Y2871D01*
G01X32810Y3246D02*
G01X32972Y3246D01*
G01X33026Y3228D01*
G01X33043Y3211D01*
G01X33061Y3176D01*
G01X33061Y3140D01*
G01X33043Y3103D01*
G01X33026Y3086D01*
G01X32972Y3067D01*
G01X32810Y3067D01*
G01X32935Y3067D02*
G01X33061Y2871D01*
G01X33180Y3246D02*
G01X33322Y3067D01*
G01X33322Y2871D01*
G01X33465Y3246D02*
G01X33322Y3067D01*
G54D10*
G75*
G01X25500Y13650D02*
G02X25500Y15150I-1000J750D01*
G01*
G54D24*
G75*
G01X29460Y15630D02*
G03X29461Y15630I0J-79D01*
G01*
G54D10*
G75*
G01X31201Y13625D02*
G03X31229Y13625I14J-1575D01*
G01*
G75*
G01X36851Y13475D02*
G03X36879Y13475I14J-1575D01*
G01*
G75*
G01X25500Y14400D02*
G03X25500Y14400I-1000J0D01*
G01*

%LPD*%
G36*
G01X32308Y13203D02*
G01X32282Y13231D01*
G01X32282Y10868D01*
G01X32308Y10896D01*
G01X32332Y10923D01*
G01X32357Y10952D01*
G01X32403Y11010D01*
G01X32447Y11070D01*
G01X32468Y11101D01*
G01X32488Y11132D01*
G01X32508Y11164D01*
G01X32527Y11196D01*
G01X32545Y11228D01*
G01X32579Y11294D01*
G01X32611Y11362D01*
G01X32625Y11396D01*
G01X32639Y11431D01*
G01X32652Y11466D01*
G01X32676Y11536D01*
G01X32687Y11572D01*
G01X32697Y11608D01*
G01X32706Y11644D01*
G01X32722Y11716D01*
G01X32729Y11753D01*
G01X32735Y11790D01*
G01X32745Y11864D01*
G01X32751Y11938D01*
G01X32753Y11975D01*
G01X32754Y12012D01*
G01X32755Y12050D01*
G01X32753Y12124D01*
G01X32751Y12161D01*
G01X32745Y12235D01*
G01X32735Y12309D01*
G01X32729Y12346D01*
G01X32722Y12383D01*
G01X32706Y12455D01*
G01X32697Y12491D01*
G01X32687Y12527D01*
G01X32676Y12563D01*
G01X32652Y12633D01*
G01X32639Y12668D01*
G01X32625Y12703D01*
G01X32611Y12737D01*
G01X32579Y12805D01*
G01X32545Y12871D01*
G01X32527Y12903D01*
G01X32508Y12935D01*
G01X32488Y12967D01*
G01X32468Y12998D01*
G01X32447Y13029D01*
G01X32403Y13089D01*
G01X32357Y13147D01*
G01X32332Y13176D01*
G01X32308Y13203D01*
G37*

%LPD*%
G36*
G01X37958Y13053D02*
G01X37932Y13081D01*
G01X37932Y10718D01*
G01X37958Y10746D01*
G01X37982Y10773D01*
G01X38007Y10802D01*
G01X38053Y10860D01*
G01X38097Y10920D01*
G01X38118Y10951D01*
G01X38138Y10982D01*
G01X38158Y11014D01*
G01X38177Y11046D01*
G01X38195Y11078D01*
G01X38229Y11144D01*
G01X38261Y11212D01*
G01X38275Y11246D01*
G01X38289Y11281D01*
G01X38302Y11316D01*
G01X38326Y11386D01*
G01X38337Y11422D01*
G01X38347Y11458D01*
G01X38356Y11494D01*
G01X38372Y11566D01*
G01X38379Y11603D01*
G01X38385Y11640D01*
G01X38395Y11714D01*
G01X38401Y11788D01*
G01X38403Y11825D01*
G01X38404Y11862D01*
G01X38405Y11900D01*
G01X38403Y11974D01*
G01X38401Y12011D01*
G01X38395Y12085D01*
G01X38385Y12159D01*
G01X38379Y12196D01*
G01X38372Y12233D01*
G01X38356Y12305D01*
G01X38347Y12341D01*
G01X38337Y12377D01*
G01X38326Y12413D01*
G01X38302Y12483D01*
G01X38289Y12518D01*
G01X38275Y12553D01*
G01X38261Y12587D01*
G01X38229Y12655D01*
G01X38195Y12721D01*
G01X38177Y12753D01*
G01X38158Y12785D01*
G01X38138Y12817D01*
G01X38118Y12848D01*
G01X38097Y12879D01*
G01X38053Y12939D01*
G01X38007Y12997D01*
G01X37982Y13026D01*
G01X37958Y13053D01*
G37*
M00*
M02*
